<svg xmlns="http://www.w3.org/2000/svg" style="isolation:isolate" width="245" height="135"><path d="M41.632 57.8V18.92q0-3.672-1.008-5.436-1.008-1.764-4.032-1.764h-1.44v-1.44h6.48q2.664 0 3.996.684 1.332.684 1.908 2.484.576 1.8.576 5.472v12.96h21.6v-21.6h6.48v38.88q0 3.672 1.008 5.436 1.008 1.764 4.032 1.764h1.44v1.44h-6.48q-2.664 0-3.996-.684-1.332-.684-1.908-2.484-.576-1.8-.576-5.472v-14.4h-21.6V57.8h-6.48zm60.264 0V13.16h-6.48q-9 0-9 8.28h-1.44v-5.4q0-5.76 6.12-5.76h33.48v2.88h-16.2V57.8h-6.48zm84.096 3.24q-5.184 0-8.064-1.584t-4.068-4.932q-1.188-3.348-1.188-8.964V17.84l-18 39.96h-1.44l-18.72-40.68V57.8h-2.88V10.28h6.84l17.28 37.44 16.92-37.44h6.48v35.28q0 6.696 1.692 10.368 1.692 3.672 5.148 3.672v1.44zm8.208-3.24V18.92q0-3.672-1.008-5.436-1.008-1.764-4.032-1.764h-1.44v-1.44h6.48q2.664 0 3.996.684 1.332.684 1.908 2.484.576 1.8.576 5.472v36h25.56v2.88H194.2zM17.088 110.2V84.28q0-2.448-.672-3.624-.672-1.176-2.688-1.176h-.96v-.96h12.48q4.608 0 8.304 1.968 3.696 1.968 3.696 7.632 0 3.744-1.92 5.76-1.92 2.016-4.296 2.688-2.376.672-4.344.672h-5.28v12.96h-4.32zm7.92-14.64q1.536 0 3.264-.792 1.728-.792 2.952-2.52t1.224-4.368q0-2.64-1.224-4.368-1.224-1.728-2.952-2.52t-3.264-.792q-1.68 0-3.6.48v14.4q1.92.48 3.6.48zm39.696 15.12q-2.544 0-4.44-1.512-1.896-1.512-4.2-5.448l-4.8-8.16h-3.36v14.64h-4.32V84.28q0-2.448-.672-3.624-.672-1.176-2.688-1.176h-.96v-.96h12.48q4.56 0 8.28 1.8 3.72 1.8 3.72 6.84 0 6.384-7.68 8.16l5.04 8.4q1.776 2.976 3.192 4.152 1.416 1.176 3.288 1.368v.96q-.432.192-1.224.336-.792.144-1.656.144zm-13.2-16.8q1.488 0 3.24-.72 1.752-.72 2.976-2.256 1.224-1.536 1.224-3.744 0-2.352-1.224-3.912t-2.976-2.304q-1.752-.744-3.24-.744-1.68 0-3.6.48V93.4q1.92.48 3.6.48zm45.408 16.56q-2.304 0-4.56-1.272t-3.6-4.968l-1.2-3.12h-13.44l-3.84 9.12h-2.16l13.44-31.68h1.44l10.56 25.68q1.2 2.784 2.256 3.816 1.056 1.032 3.024 1.224v.96q-.864.24-1.92.24zm-16.08-25.2l-6 13.92h11.76l-5.76-13.92zm33.024 25.92q-4.464 0-7.848-2.16-3.384-2.16-5.208-5.88-1.824-3.72-1.824-8.28 0-4.704 1.992-8.688 1.992-3.984 5.424-6.288 3.432-2.304 7.464-2.304 3.84 0 6.744 1.08t4.296 2.76q.816 1.008 1.008 2.664.192 1.656.192 4.536h-.96q-.912-4.656-3.36-6.888t-6.48-2.232q-5.184 0-8.352 3.648t-3.168 11.712q0 3.792 1.224 7.056 1.224 3.264 3.816 5.304 2.592 2.04 6.48 2.04 3.504 0 6.12-1.68t4.68-5.04l.96.72q-2.208 4.32-5.448 6.12-3.24 1.8-7.752 1.8zm27.216-.96V80.44h-4.32q-6 0-6 5.52h-.96v-3.6q0-3.84 4.08-3.84h22.32v1.92h-10.8v29.76h-4.32zm24.288 0q-1.776 0-2.664-.456-.888-.456-1.272-1.656t-.384-3.648V78.52h4.32v25.92q0 2.448.672 3.624.672 1.176 2.688 1.176h.96v.96h-4.32zm21.744.96q-4.464 0-7.848-2.16-3.384-2.16-5.208-5.88-1.824-3.72-1.824-8.28 0-4.704 1.992-8.688 1.992-3.984 5.424-6.288 3.432-2.304 7.464-2.304 3.84 0 6.744 1.08t4.296 2.76q.816 1.008 1.008 2.664.192 1.656.192 4.536h-.96q-.912-4.656-3.36-6.888t-6.48-2.232q-5.184 0-8.352 3.648t-3.168 11.712q0 3.792 1.224 7.056 1.224 3.264 3.816 5.304 2.592 2.04 6.48 2.04 3.504 0 6.12-1.68t4.68-5.04l.96.72q-2.208 4.32-5.448 6.12-3.24 1.8-7.752 1.8zm20.016-.96V84.28q0-2.448-.672-3.624-.672-1.176-2.688-1.176h-.96v-.96h20.448q4.08 0 4.08 3.84v3.6h-.96q0-5.52-6-5.52h-8.928v12.48h12.96v1.92h-12.96v13.44h8.4q3.312 0 5.184-1.2 1.872-1.2 2.976-4.08l.96.24-1.68 4.56q-.864 2.4-3.6 2.4h-16.56zM0 67h245v1H0v-1zm0 53h245v5H0v-5z" fill-rule="evenodd" fill="#323436"/></svg>